<mxfile host="65bd71144e">
    <diagram id="v8-c6aN_PZKcwBj2Luv6" name="第 1 页">
        <mxGraphModel dx="811" dy="588" grid="1" gridSize="10" guides="1" tooltips="1" connect="1" arrows="1" fold="1" page="1" pageScale="1" pageWidth="1000000" pageHeight="1000000" background="#FFFFE0" math="0" shadow="0">
            <root>
                <mxCell id="0"/>
                <mxCell id="1" parent="0"/>
                <mxCell id="2" value="double" style="text;html=1;align=center;verticalAlign=middle;resizable=0;points=[];autosize=1;strokeColor=#66CC00;fillColor=none;sketch=1;curveFitting=1;jiggle=2;rounded=1;fontSize=20;fontColor=#000000;" vertex="1" parent="1">
                    <mxGeometry x="300" y="60" width="80" height="40" as="geometry"/>
                </mxCell>
                <mxCell id="4" style="edgeStyle=none;html=1;entryX=1.027;entryY=0.528;entryDx=0;entryDy=0;entryPerimeter=0;fontSize=20;fontColor=#000000;labelBackgroundColor=#009900;strokeColor=#009900;" edge="1" parent="1" source="3" target="2">
                    <mxGeometry relative="1" as="geometry"/>
                </mxCell>
                <mxCell id="3" value="float" style="text;html=1;align=center;verticalAlign=middle;resizable=0;points=[];autosize=1;strokeColor=#66CC00;fillColor=none;sketch=1;curveFitting=1;jiggle=2;rounded=1;fontSize=20;fontColor=#000000;" vertex="1" parent="1">
                    <mxGeometry x="530" y="60" width="60" height="40" as="geometry"/>
                </mxCell>
                <mxCell id="9" style="edgeStyle=none;html=1;labelBackgroundColor=#009900;strokeColor=#009900;fontSize=20;fontColor=#000000;" edge="1" parent="1" source="5" target="2">
                    <mxGeometry relative="1" as="geometry"/>
                </mxCell>
                <mxCell id="5" value="long" style="text;html=1;align=center;verticalAlign=middle;resizable=0;points=[];autosize=1;strokeColor=#66CC00;fillColor=none;fontSize=20;fontColor=#000000;sketch=1;curveFitting=1;jiggle=2;rounded=1;" vertex="1" parent="1">
                    <mxGeometry x="310" y="150" width="60" height="40" as="geometry"/>
                </mxCell>
                <mxCell id="10" style="edgeStyle=none;html=1;labelBackgroundColor=#009900;strokeColor=#009900;fontSize=20;fontColor=#000000;" edge="1" parent="1" source="6" target="5">
                    <mxGeometry relative="1" as="geometry"/>
                </mxCell>
                <mxCell id="6" value="unsigned int" style="text;html=1;align=center;verticalAlign=middle;resizable=0;points=[];autosize=1;strokeColor=#66CC00;fillColor=none;fontSize=20;fontColor=#000000;sketch=1;curveFitting=1;jiggle=2;rounded=1;" vertex="1" parent="1">
                    <mxGeometry x="275" y="240" width="130" height="40" as="geometry"/>
                </mxCell>
                <mxCell id="11" style="edgeStyle=none;html=1;labelBackgroundColor=#009900;strokeColor=#009900;fontSize=20;fontColor=#000000;" edge="1" parent="1" source="7" target="6">
                    <mxGeometry relative="1" as="geometry"/>
                </mxCell>
                <mxCell id="7" value="signed int" style="text;html=1;align=center;verticalAlign=middle;resizable=0;points=[];autosize=1;strokeColor=#66CC00;fillColor=none;fontSize=20;fontColor=#000000;rounded=1;sketch=1;curveFitting=1;jiggle=2;glass=0;" vertex="1" parent="1">
                    <mxGeometry x="285" y="330" width="110" height="40" as="geometry"/>
                </mxCell>
                <mxCell id="12" style="edgeStyle=none;html=1;labelBackgroundColor=#009900;strokeColor=#009900;fontSize=20;fontColor=#000000;" edge="1" parent="1" source="8" target="7">
                    <mxGeometry relative="1" as="geometry"/>
                </mxCell>
                <mxCell id="8" value="char、short" style="text;html=1;align=center;verticalAlign=middle;resizable=0;points=[];autosize=1;strokeColor=#66CC00;fillColor=none;fontSize=20;fontColor=#000000;rounded=1;sketch=1;curveFitting=1;jiggle=2;" vertex="1" parent="1">
                    <mxGeometry x="495" y="330" width="130" height="40" as="geometry"/>
                </mxCell>
                <mxCell id="15" style="edgeStyle=none;html=1;labelBackgroundColor=#009900;strokeColor=#009900;fontSize=20;fontColor=#FF8000;" edge="1" parent="1" source="13" target="14">
                    <mxGeometry relative="1" as="geometry"/>
                </mxCell>
                <mxCell id="13" value="低" style="text;html=1;align=center;verticalAlign=middle;resizable=0;points=[];autosize=1;strokeColor=none;fillColor=none;fontSize=20;fontColor=#FF8000;" vertex="1" parent="1">
                    <mxGeometry x="140" y="330" width="40" height="40" as="geometry"/>
                </mxCell>
                <mxCell id="14" value="高" style="text;html=1;align=center;verticalAlign=middle;resizable=0;points=[];autosize=1;strokeColor=none;fillColor=none;fontSize=20;fontColor=#FF8000;" vertex="1" parent="1">
                    <mxGeometry x="140" y="60" width="40" height="40" as="geometry"/>
                </mxCell>
            </root>
        </mxGraphModel>
    </diagram>
</mxfile>